<svg width="36" height="36" viewBox="0 0 36 36" fill="none" xmlns="http://www.w3.org/2000/svg">
<path d="M19.6489 18.5271L22.7212 21.4265C24.7091 23.3028 25.8488 25.9459 25.8488 28.6791C25.8488 29.5459 25.154 30.24 24.3008 30.24H11.7008C10.8469 30.24 10.1528 29.5459 10.1528 28.692C10.1528 25.9466 11.2926 23.3028 13.2805 21.4265L16.3528 18.5271C16.4968 18.391 16.5796 18.1987 16.5796 18C16.5796 17.8013 16.4968 17.609 16.3528 17.473L13.2805 14.5735C11.2926 12.6972 10.1528 10.0541 10.1528 7.32097C10.1521 6.46057 10.8455 5.76001 11.6972 5.76001H24.303C25.1555 5.76001 25.8481 6.46057 25.8481 7.32097C25.8481 10.0534 24.7084 12.6972 22.7204 14.5735L19.6482 17.473C19.5042 17.609 19.4214 17.8013 19.4214 18C19.4214 18.1987 19.5049 18.391 19.6489 18.5271ZM23.6111 29.52C23.9315 29.52 24.0928 29.1319 23.866 28.9051L18.5711 23.6103C18.4357 23.4749 18.3601 23.292 18.3601 23.1012V18.0065C18.3601 17.8085 18.4415 17.6191 18.5862 17.4831L20.4316 15.7421C20.6677 15.5182 20.5093 15.12 20.1839 15.12H15.8164C15.4909 15.12 15.3325 15.5182 15.5694 15.7421L17.4148 17.4831C17.5588 17.6191 17.6408 17.8085 17.6408 18.0065V23.1012C17.6408 23.292 17.5652 23.4756 17.4299 23.6103L12.135 28.9051C11.9082 29.1319 12.0688 29.52 12.3892 29.52H23.6111Z" fill="#8338EC"/>
</svg>
